#!OML:ASF H:\Terrain\Patient Classification 1\Animal1\Tuesday\Animal1.ASF
:FULLY-SPECIFIED
:DEGREES
1069
root 18.683 14.9 -3.11737 -166.851 -170.298 -178.481
lowerback 30.2208 4.77253 2.04147
upperback 13.3397 6.2315 -1.98272
thorax -0.94222 3.20866 -5.1803
lowerneck 5.55397 -2.26356 -5.48439
upperneck -34.2942 -2.07313 6.932
head -11.9743 -1.09046 3.85218
rclavicle -1.11319e-014 2.70347e-014
rhumerus 36.5461 37.3106 -39.3172
rradius 52.061
rwrist -38.8204
rhand -24.5108 27.3875
rfingers 7.12502
rthumb 1.98399 -2.58302
lclavicle -1.11319e-014 2.70347e-014
lhumerus 6.10357 21.3977 13.591
lradius 53.2601
lwrist -13.4662
lhand -18.8747 55.4315
lfingers 7.12502
lthumb 7.42612 -634.719
rfemur -60.1664 -14.1356 24.8636
rtibia 65.1484
rfoot -13.1001 -14.2863
rtoes 7.29893
lfemur -52.6475 5.02617 -1.58345
ltibia 41.9322
lfoot 4.90134 6.23356
ltoes -25.7111
1070
root 18.7976 14.8033 -3.08322 -166.41 -169.759 -178.015
lowerback 29.6425 4.69736 1.08213
upperback 13.2902 5.87895 -2.31791
thorax -0.84207 3.00538 -4.86257
lowerneck 5.69695 -2.09151 -5.41541
upperneck -34.4024 -1.73364 7.19512
head -12.0717 -0.981215 3.91579
rclavicle 6.2816e-014 -7.51406e-014
rhumerus 37.0436 37.8746 -37.4114
rradius 53.3556
rwrist -38.8985
rhand -22.7584 27.1821
rfingers 7.12502
rthumb 3.67642 -2.76592
lclavicle 6.2816e-014 -7.51406e-014
lhumerus 6.76492 22.0189 14.3006
lradius 51.7777
lwrist -13.7996
lhand -19.8404 57.7471
lfingers 7.12502
lthumb 6.49391 -632.372
rfemur -61.7259 -14.6651 24.2479
rtibia 66.4867
rfoot -13.4193 -13.6881
rtoes 4.99959
lfemur -54.299 6.50614 -3.32106
ltibia 44.0695
lfoot 2.60727 5.62001
ltoes -22.6692
1071
root 18.9081 14.728 -3.04629 -166.249 -169.164 -177.677
lowerback 29.3597 4.69406 0.203591
upperback 13.3376 5.63569 -2.69851
thorax -0.72696 2.86143 -4.69175
lowerneck 5.47433 -1.92437 -5.06404
upperneck -34.2832 -1.32244 7.48355
head -12.0086 -0.876723 3.91041
rclavicle -3.02153e-014 4.85035e-014
rhumerus 36.9362 38.2885 -35.9675
rradius 54.5425
rwrist -38.282
rhand -21.2349 27.962
rfingers 7.12502
rthumb 5.14753 -1.95546
lclavicle -3.02153e-014 4.85035e-014
lhumerus 7.99115 22.5894 15.0735
lradius 49.9949
lwrist -14.3314
lhand -20.5437 60.1159
lfingers 7.12502
lthumb 5.81487 -810.016
rfemur -62.656 -15.0219 23.6452
rtibia 67.4304
rfoot -13.7938 -13.3196
rtoes 1.73565
lfemur -55.6357 7.87916 -4.82808
ltibia 46.1326
lfoot 1.17356 4.85513
ltoes -21.2154
1072
root 19.0163 14.6626 -3.00004 -166.324 -168.664 -177.706
lowerback 29.4646 4.8322 -0.108559
upperback 13.4082 5.70189 -3.05976
thorax -0.672126 2.89466 -4.93777
lowerneck 5.64502 -2.05495 -4.11915
upperneck -34.53 -1.27764 7.69619
head -12.1594 -1.011 3.8375
rclavicle -3.97569e-015 -2.34566e-014
rhumerus 35.516 38.1569 -35.3268
rradius 55.814
rwrist -37.669
rhand -20.2854 29.4415
rfingers 7.12502
rthumb 6.06427 -0.451744
lclavicle -3.97569e-015 -2.34566e-014
lhumerus 10.0433 22.6077 16.1616
lradius 48.4129
lwrist -14.5077
lhand -20.7724 62.1223
lfingers 7.12502
lthumb 5.5941 -812.028
rfemur -62.9695 -15.3658 23.3615
rtibia 68.0289
rfoot -14.0366 -13.1075
rtoes -0.581261
lfemur -56.6757 9.12171 -5.82743
ltibia 48.1988
lfoot 0.284337 4.01573
ltoes -20.5023
1073
root 19.1167 14.5969 -2.96009 -166.251 -168.38 -177.828
lowerback 29.39 4.60955 -0.600169
upperback 13.4406 5.28858 -3.26673
thorax -0.659501 2.67284 -4.76492
lowerneck 5.86222 -1.84642 -4.45631
upperneck -34.4988 -0.834496 8.35209
head -12.2139 -0.853412 4.10976
rclavicle -2.66371e-014 1.07344e-014
rhumerus 35.2119 38.495 -33.7781
rradius 57.1168
rwrist -37.4682
rhand -19.4545 30.6801
rfingers 7.12502
rthumb 6.86645 0.81142
lclavicle -2.66371e-014 1.07344e-014
lhumerus 10.5393 23.9577 18.396
lradius 47.6897
lwrist -16.5949
lhand -19.9136 63.4062
lfingers 7.12502
lthumb 6.42323 -813.289
rfemur -63.376 -15.6656 23.2371
rtibia 68.4607
rfoot -14.4534 -12.8758
rtoes 0.555434
lfemur -57.9773 10.1767 -6.58991
ltibia 50.2352
lfoot -0.46517 3.22668
ltoes -16.7835
1074
root 19.2141 14.54 -2.92397 -166.117 -168.2 -178.295
lowerback 29.4022 4.49324 -0.749784
upperback 13.5066 5.09005 -3.48258
thorax -0.593988 2.5751 -4.86092
lowerneck 5.05355 -1.69405 -4.17257
upperneck -33.7142 -0.420119 8.80944
head -11.7538 -0.746883 4.13127
rclavicle 2.46493e-014 6.75868e-015
rhumerus 34.4653 38.415 -32.6078
rradius 58.0198
rwrist -37.2571
rhand -18.3393 31.2732
rfingers 7.12502
rthumb 7.94283 1.44239
lclavicle 2.46493e-014 6.75868e-015
lhumerus 12.6901 24.5713 19.589
lradius 45.9185
lwrist -17.3262
lhand -18.1874 64.2094
lfingers 7.12502
lthumb 8.08943 -814.035
rfemur -63.6452 -15.8242 23.4705
rtibia 68.7234
rfoot -15.0081 -12.6893
rtoes 2.05818
lfemur -59.2238 11.072 -6.80605
ltibia 52.1196
lfoot -1.19483 2.35042
ltoes -12.6491
1075
root 19.3141 14.4949 -2.87916 -166.091 -168.015 -178.974
lowerback 29.3067 4.17834 -0.673974
upperback 13.6151 4.70728 -3.65685
thorax -0.434177 2.39611 -4.97712
lowerneck 5.04863 -1.36695 -4.44403
upperneck -33.3422 0.213853 9.49729
head -11.6494 -0.504103 4.3602
rclavicle 5.4467e-014 -4.30369e-014
rhumerus 34.4586 38.7684 -30.7819
rradius 58.7329
rwrist -37.2967
rhand -17.3256 31.3812
rfingers 7.12502
rthumb 8.92111 1.58975
lclavicle 5.4467e-014 -4.30369e-014
lhumerus 14.5509 24.2497 19.3
lradius 43.8244
lwrist -16.0343
lhand -16.2002 64.0607
lfingers 7.12502
lthumb 10.007 -813.803
rfemur -63.5818 -15.9992 23.8512
rtibia 68.8882
rfoot -15.5005 -12.4001
rtoes 2.06776
lfemur -60.0321 11.7735 -6.65962
ltibia 53.7348
lfoot -2.0742 1.40185
ltoes -12.6473
1076
root 19.4184 14.4593 -2.83655 -166.255 -167.739 -179.449
lowerback 29.49 4.06793 -0.61506
upperback 13.8058 4.5627 -3.84912
thorax -0.28339 2.33656 -5.18927
lowerneck 4.79825 -1.32052 -4.57631
upperneck -33.0085 0.453388 10.1817
head -11.4802 -0.455166 4.60037
rclavicle -6.11263e-015 -1.78906e-015
rhumerus 33.555 38.6944 -29.4527
rradius 59.2143
rwrist -37.2898
rhand -16.7788 31.5197
rfingers 7.12502
rthumb 9.44873 1.7515
lclavicle -6.11263e-015 -1.78906e-015
lhumerus 16.937 24.5039 20.7194
lradius 42.4468
lwrist -15.6933
lhand -13.4614 63.8692
lfingers 7.12502
lthumb 12.6484 -813.466
rfemur -63.3712 -16.2454 23.9725
rtibia 69.009
rfoot -15.3511 -12.293
rtoes -0.201776
lfemur -60.3421 12.2337 -6.65645
ltibia 54.9457
lfoot -3.26409 0.805259
ltoes -16.6043
1077
root 19.5277 14.4278 -2.80202 -166.415 -167.442 -179.753
lowerback 29.8222 4.02151 -0.721478
upperback 13.8939 4.44702 -4.06183
thorax -0.324909 2.28023 -5.35428
lowerneck 4.56532 -1.34976 -4.53937
upperneck -32.6362 0.546477 10.6985
head -11.2898 -0.473792 4.75752
rclavicle 7.15625e-015 -5.7896e-015
rhumerus 32.0726 38.7654 -28.4276
rradius 59.4958
rwrist -37.2297
rhand -16.928 31.7082
rfingers 7.12502
rthumb 9.30479 1.93357
lclavicle 7.15625e-015 -5.7896e-015
lhumerus 19.5736 24.6091 22.4639
lradius 41.0842
lwrist -15.151
lhand -10.1666 63.9859
lfingers 7.12502
lthumb 15.8232 -813.359
rfemur -63.2623 -16.4572 23.8905
rtibia 69.0695
rfoot -14.7424 -12.4614
rtoes -3.82751
lfemur -60.4439 12.5305 -6.88151
ltibia 55.7133
lfoot -4.83515 0.855427
ltoes -20.1218
1078
root 19.6365 14.4041 -2.76956 -166.481 -167.23 -180.144
lowerback 29.9739 3.78344 -0.726282
upperback 14.0561 4.1266 -4.31997
thorax -0.208961 2.13307 -5.55366
lowerneck 4.37732 -1.2005 -4.55768
upperneck -32.4015 0.858035 11.066
head -11.1885 -0.365909 4.85484
rclavicle 3.61788e-014 -4.99943e-014
rhumerus 31.2259 38.9056 -26.7673
rradius 59.7562
rwrist -37.307
rhand -17.5587 31.2585
rfingers 7.12502
rthumb 8.6962 1.45765
lclavicle 3.61788e-014 -4.99943e-014
lhumerus 21.7223 24.7913 24.0456
lradius 39.951
lwrist -14.0875
lhand -7.35391 63.6864
lfingers 7.12502
lthumb 18.5304 -812.824
rfemur -63.109 -16.5601 23.7968
rtibia 69.0405
rfoot -15.1636 -11.825
rtoes -1.83633
lfemur -60.3635 12.8539 -7.19062
ltibia 56.1197
lfoot -6.60359 1.50506
ltoes -23.8912
1079
root 19.7474 14.4028 -2.73618 -166.467 -166.91 -180.55
lowerback 30.0047 3.58988 -0.787134
upperback 14.1541 3.8502 -4.58607
thorax -0.115119 2.00358 -5.73713
lowerneck 4.09669 -0.994421 -4.63242
upperneck -31.8262 1.21521 11.4174
head -10.9414 -0.219199 4.93016
rclavicle -1.11319e-014 -3.12092e-014
rhumerus 30.6694 39.1025 -24.6404
rradius 59.8951
rwrist -37.6449
rhand -18.3049 29.7874
rfingers 7.12502
rthumb 7.97609 -0.0421049
lclavicle -1.11319e-014 -3.12092e-014
lhumerus 23.2735 24.4852 25.4215
lradius 39.3396
lwrist -12.6476
lhand -5.05971 63.2487
lfingers 7.12502
lthumb 20.736 -812.161
rfemur -62.893 -16.5863 23.6807
rtibia 68.8747
rfoot -15.6982 -10.7299
rtoes 2.22524
lfemur -60.1396 13.3304 -7.62006
ltibia 56.3287
lfoot -7.89906 2.54898
ltoes -30.1827
